<mxfile host="app.diagrams.net" modified="2022-12-05T08:57:41.901Z" agent="5.0 (Macintosh; Intel Mac OS X 10_15_7) AppleWebKit/537.36 (KHTML, like Gecko) Chrome/108.0.0.0 Safari/537.36" version="20.6.0" etag="yEWeLBzVppgZCHypzabX" type="github">
  <diagram id="vQoLeJpgnqJiVLnybNM8" name="Page-1">
    <mxGraphModel dx="946" dy="614" grid="1" gridSize="10" guides="1" tooltips="1" connect="1" arrows="1" fold="1" page="1" pageScale="1" pageWidth="850" pageHeight="1100" math="0" shadow="0">
      <root>
        <mxCell id="0" />
        <mxCell id="1" parent="0" />
        <mxCell id="DrFPFFu0sSi-oH4Lc2bN-4" value="" style="rounded=1;whiteSpace=wrap;html=1;" vertex="1" parent="1">
          <mxGeometry x="110" y="170" width="330" height="330" as="geometry" />
        </mxCell>
        <mxCell id="DrFPFFu0sSi-oH4Lc2bN-5" value="" style="rounded=1;whiteSpace=wrap;html=1;" vertex="1" parent="1">
          <mxGeometry x="160" y="220" width="130" height="60" as="geometry" />
        </mxCell>
        <mxCell id="DrFPFFu0sSi-oH4Lc2bN-6" value="" style="rounded=0;whiteSpace=wrap;html=1;" vertex="1" parent="1">
          <mxGeometry x="180" y="250" width="90" height="30" as="geometry" />
        </mxCell>
        <mxCell id="DrFPFFu0sSi-oH4Lc2bN-7" value="" style="rounded=1;whiteSpace=wrap;html=1;" vertex="1" parent="1">
          <mxGeometry x="510" y="170" width="330" height="330" as="geometry" />
        </mxCell>
        <mxCell id="DrFPFFu0sSi-oH4Lc2bN-8" value="" style="rounded=1;whiteSpace=wrap;html=1;" vertex="1" parent="1">
          <mxGeometry x="660" y="220" width="130" height="60" as="geometry" />
        </mxCell>
        <mxCell id="DrFPFFu0sSi-oH4Lc2bN-9" value="" style="rounded=0;whiteSpace=wrap;html=1;" vertex="1" parent="1">
          <mxGeometry x="680" y="250" width="90" height="30" as="geometry" />
        </mxCell>
        <mxCell id="DrFPFFu0sSi-oH4Lc2bN-10" value="" style="rounded=0;whiteSpace=wrap;html=1;" vertex="1" parent="1">
          <mxGeometry x="180" y="330" width="90" height="30" as="geometry" />
        </mxCell>
        <mxCell id="DrFPFFu0sSi-oH4Lc2bN-11" value="" style="rounded=0;whiteSpace=wrap;html=1;" vertex="1" parent="1">
          <mxGeometry x="230" y="470" width="90" height="30" as="geometry" />
        </mxCell>
        <mxCell id="DrFPFFu0sSi-oH4Lc2bN-12" value="" style="rounded=0;whiteSpace=wrap;html=1;" vertex="1" parent="1">
          <mxGeometry x="680" y="330" width="90" height="30" as="geometry" />
        </mxCell>
        <mxCell id="DrFPFFu0sSi-oH4Lc2bN-13" value="" style="rounded=0;whiteSpace=wrap;html=1;" vertex="1" parent="1">
          <mxGeometry x="640" y="470" width="90" height="30" as="geometry" />
        </mxCell>
      </root>
    </mxGraphModel>
  </diagram>
</mxfile>
